<?xml version="1.0" encoding="UTF-8"?>
<svg id="Layer_1" data-name="Layer 1" xmlns="http://www.w3.org/2000/svg" xmlns:xlink="http://www.w3.org/1999/xlink" viewBox="0 0 35 35">
  <defs>
    <style>
      .cls-1 {
        clip-path: url(#clippath);
      }

      .cls-2 {
        fill: none;
      }

      .cls-2, .cls-3 {
        stroke-width: 0px;
      }

      .cls-3 {
        fill: #fff;
      }
    </style>
    <clipPath id="clippath">
      <rect class="cls-2" x="4.29" y="2.67" width="27.92" height="30"/>
    </clipPath>
  </defs>
  <g class="cls-1">
    <g id="Group_15" data-name="Group 15">
      <path id="Path_22" data-name="Path 22" class="cls-3" d="M13.81,10.02c-.73-.69-1.41-1.43-2.06-2.19-.64-.81-.91-1.85-.74-2.87.2-1.44,1.53-2.46,2.97-2.26.03,0,.07.01.1.02,1.52.24,2.87,1.12,3.7,2.41l.48.66c.33-.45.6-.87.91-1.26.74-.93,1.79-1.57,2.96-1.8,2.33-.47,3.95,1.37,3.3,3.74-.35,1.26-1,2.06-2.85,3.49.28.02.48.05.68.05h6.43c1.2-.17,2.31.67,2.48,1.87.03.21.03.42,0,.63.05.62.04,1.25-.03,1.88-.15.52-.36,1.02-.62,1.49-.19.3-.32.64-.39.99-.03,4.02-.02,8.05-.02,12.07.16,1.89-1.24,3.56-3.14,3.72-.18.02-.36.02-.55,0H9.09c-1.89.13-3.53-1.3-3.66-3.19-.01-.16-.01-.32,0-.48v-12.07c.05-.42-.11-.85-.43-1.13-.93-.86-.96-4.24-.02-5.06.49-.41,1.11-.64,1.75-.68,2.14-.08,4.29-.03,6.43-.03h.66M7.59,16.53c0,4.28-.02,8.49.01,12.7,0,.86.54,1.28,1.42,1.28,2.53,0,5.06,0,7.59,0,.19,0,.38-.03.56-.06v-13.92H7.59ZM19.39,30.51h7.8c1.4,0,1.79-.38,1.79-1.8v-12.18h-9.59v13.98ZM17.14,12.23H6.57v2.06h10.57v-2.06ZM19.4,14.28h10.59v-2.05h-10.59v2.05ZM16.93,8.66c-.12-1.71-1.24-3.18-2.85-3.76-.74-.16-1.08.15-.93.87.54,1.65,2.05,2.81,3.78,2.89M19.62,8.71c1.63-.14,3.05-1.17,3.69-2.67.12-.33.1-.69-.06-1-.17-.18-.67-.17-.98-.08-1.52.65-2.55,2.1-2.66,3.75"/>
      <path id="Path_23" data-name="Path 23" class="cls-2" d="M7.28,16.53h10.11v14.23c-.21.02-.4.06-.59.06-2.67,0-5.33,0-8,0-.92,0-1.49-.43-1.5-1.31-.03-4.3-.01-8.61-.01-12.98"/>
      <path id="Path_24" data-name="Path 24" class="cls-2" d="M19.19,30.82v-14.29h10.14v12.45c0,1.44-.41,1.84-1.89,1.84h-8.25"/>
      <rect id="Rectangle_22" data-name="Rectangle 22" class="cls-2" x="6.44" y="11.95" width="10.95" height="2.34"/>
      <path id="Path_25" data-name="Path 25" class="cls-2" d="M16.93,8.66c-1.74-.09-3.24-1.24-3.78-2.89-.15-.72.19-1.03.93-.87,1.61.58,2.73,2.05,2.85,3.76"/>
      <path id="Path_26" data-name="Path 26" class="cls-2" d="M19.62,8.71c.11-1.65,1.14-3.1,2.66-3.74.31-.09.81-.1.98.08.16.31.18.67.06,1-.65,1.5-2.07,2.52-3.69,2.67"/>
    </g>
  </g>
</svg>