<?xml version="1.0" encoding="UTF-8"?>
<svg id="Layer_1" data-name="Layer 1" xmlns="http://www.w3.org/2000/svg" xmlns:xlink="http://www.w3.org/1999/xlink" viewBox="0 0 35 35">
  <defs>
    <style>
      .cls-1 {
        clip-path: url(#clippath);
      }

      .cls-2 {
        fill: none;
      }

      .cls-2, .cls-3 {
        stroke-width: 0px;
      }

      .cls-3 {
        fill: #fff;
      }
    </style>
    <clipPath id="clippath">
      <rect class="cls-2" x=".97" y="3.34" width="33.96" height="30"/>
    </clipPath>
  </defs>
  <g class="cls-1">
    <g id="Group_7" data-name="Group 7">
      <path id="Path_10" data-name="Path 10" class="cls-3" d="M17.93,7.4c.23-.28.4-.48.56-.69,3.91-5.03,11.11-4,14.29.32,2.6,3.52,2.65,7.35,1.18,11.29-1.39,3.38-3.58,6.37-6.39,8.71-2.7,2.4-5.69,4.45-8.9,6.1-.37.21-.8.25-1.2.13-5.41-2.86-10.31-6.34-13.79-11.5-1.92-2.7-2.86-5.97-2.68-9.28C1.38,6.14,7.83,1.74,13.61,3.89c1.75.72,3.25,1.95,4.32,3.51M10.59,4.91c-4.52.04-8.16,3.74-8.12,8.26,0,.3.02.6.06.89.26,2.8,1.31,5.46,3.04,7.68,3.24,4.11,7.33,7.46,12,9.82.29.1.6.08.87-.07,2.76-1.46,5.34-3.23,7.7-5.28,2.82-2.48,5.29-5.24,6.53-8.88,1.13-3.31,1.04-6.51-1.13-9.44-2.6-3.52-9.12-4.52-12.23.17-.21.32-.41.64-.63.95-.46.67-1.02.67-1.48.02-.36-.51-.69-1.04-1.08-1.53-1.31-1.71-3.37-2.68-5.53-2.61"/>
      <path id="Path_11" data-name="Path 11" class="cls-2" d="M10.59,4.91c2.16-.08,4.22.89,5.53,2.61.38.49.72,1.02,1.08,1.53.46.65,1.02.65,1.48-.02.22-.31.42-.63.63-.95,3.11-4.7,9.63-3.7,12.22-.17,2.16,2.93,2.25,6.13,1.12,9.44-1.24,3.63-3.71,6.4-6.53,8.88-2.36,2.05-4.94,3.82-7.7,5.28-.27.14-.58.17-.87.06-4.67-2.36-8.76-5.71-12-9.82-1.73-2.22-2.78-4.88-3.04-7.68-.53-4.49,2.68-8.57,7.18-9.1.3-.03.59-.05.89-.06"/>
    </g>
  </g>
</svg>