<?xml version="1.0" encoding="UTF-8"?>
<svg id="Layer_1" data-name="Layer 1" xmlns="http://www.w3.org/2000/svg" viewBox="0 0 213.02 97.34">
  <defs>
    <style>
      .cls-1 {
        fill: #64818f;
        stroke-width: 0px;
      }
    </style>
  </defs>
  <path id="Union_3" data-name="Union 3" class="cls-1" d="M133.03,67.08c-.36-.75-.04-1.65.71-2,.51-.24,1.11-.18,1.55.16,6.26,5.14,14.15,7.86,22.25,7.67-.4-1.75-.62-3.53-.66-5.32-.38-14.86,11.35-27.21,26.21-27.59,0,0,0,0,.01,0,14.86-.36,27.2,11.38,27.59,26.24.37,14.65-11.06,26.91-25.7,27.56-12.23,1.38-34.27,1.21-48.62-20.88-1.22-1.88-2.34-3.83-3.34-5.83Z"/>
  <path id="Union_3-2" data-name="Union 3" class="cls-1" d="M76.87,73.24c-14.35,22.09-36.39,22.26-48.62,20.88-14.64-.66-26.07-12.91-25.7-27.56.39-14.86,12.73-26.6,27.59-26.24,0,0,0,0,.01,0,14.86.38,26.59,12.74,26.21,27.59-.04,1.79-.27,3.57-.66,5.32,8.1.19,15.99-2.53,22.25-7.67.45-.34,1.05-.4,1.55-.16.75.36,1.07,1.25.71,2-1.01,2-2.12,3.95-3.34,5.83Z"/>
  <path id="Union_3-3" data-name="Union 3" class="cls-1" d="M87.57,78.49c-.64.53-1.58.45-2.12-.18-.36-.43-.45-1.03-.24-1.54,3.4-7.35,4.04-15.68,1.82-23.46-1.59.82-3.26,1.49-4.98,1.98-14.28,4.11-29.19-4.14-33.3-18.43,0,0,0,0,0-.01-4.09-14.29,4.17-29.19,18.45-33.3,14.09-4.04,28.82,3.93,33.14,17.94,4.41,11.49,9.79,32.87-7.98,52.31-1.51,1.65-3.12,3.22-4.8,4.7Z"/>
  <path id="Union_3-4" data-name="Union 3" class="cls-1" d="M122.11,74.27c-18.52-18.73-13.98-40.3-10.02-51.96,3.77-14.17,18.18-22.71,32.41-19.23,14.43,3.55,23.27,18.11,19.75,32.55,0,0,0,0,0,.01-3.54,14.43-18.12,23.26-32.55,19.72-1.74-.42-3.44-1.02-5.06-1.78-1.91,7.87-.94,16.16,2.74,23.37.24.51.17,1.11-.18,1.55-.51.66-1.45.78-2.11.27-1.74-1.41-3.4-2.92-4.98-4.51Z"/>
</svg>