<?xml version="1.0" encoding="UTF-8"?>
<svg id="Layer_1" data-name="Layer 1" xmlns="http://www.w3.org/2000/svg" xmlns:xlink="http://www.w3.org/1999/xlink" viewBox="0 0 582.63 185.91">
  <defs>
    <style>
      .cls-1 {
        fill: #64818f;
      }

      .cls-1, .cls-2, .cls-3 {
        stroke-width: 0px;
      }

      .cls-4 {
        clip-path: url(#clippath);
      }

      .cls-2 {
        fill: none;
      }

      .cls-5 {
        font-family: Brother-1816-Bold, 'Brother 1816';
        font-size: 47.56px;
        font-weight: 700;
      }

      .cls-5, .cls-6 {
        isolation: isolate;
      }

      .cls-5, .cls-3 {
        fill: #fff;
      }

      .cls-7 {
        letter-spacing: .04em;
      }

      .cls-8 {
        letter-spacing: .06em;
      }
    </style>
    <clipPath id="clippath">
      <rect class="cls-2" x="60.29" y=".86" width="520.04" height="171.26"/>
    </clipPath>
  </defs>
  <g id="BOOKS" class="cls-6">
    <text class="cls-5" transform="translate(204.88 183.98)"><tspan class="cls-7" x="0" y="0">B</tspan><tspan class="cls-8" x="32.48" y="0">O</tspan><tspan class="cls-7" x="74.52" y="0">OK</tspan><tspan x="150.33" y="0">S</tspan></text>
  </g>
  <g id="Group_100" data-name="Group 100">
    <g class="cls-4">
      <g id="Group_42" data-name="Group 42">
        <path id="Path_129" data-name="Path 129" class="cls-3" d="M60.29,13.76h57.69v9.5l-13.44,1.43c-.36,14.51-.36,29.57-.36,44.61v6.45c0,14.87,0,29.92.36,44.61l13.44,1.43v9.68h-57.69v-9.67l13.44-1.43c.36-14.51.36-29.38.36-44.43v-6.63c0-14.87,0-29.74-.36-44.61l-13.44-1.43v-9.5Z"/>
        <path id="Path_130" data-name="Path 130" class="cls-3" d="M128.9,123.04l9.67-2.15c.18-8.6.18-19.53.18-27.05v-10.39c0-9.85-.18-13.62-.54-20.78l-10.93-1.61v-6.99l35.29-11.99,3.22,1.97,1.07,12.9c9.32-10.94,18.09-14.87,28.49-14.87,15.58,0,25.98,10.21,25.98,30.99v20.77c0,7.88,0,18.63.18,27.41l8.96,1.79v8.42h-47.29v-8.42l9.49-2.15c.18-8.6.18-19.35.18-27.05v-18.82c0-11.47-3.05-15.58-10.03-15.58-4.48,0-10.03,2.33-15.4,6.45v27.95c0,7.52,0,18.63.18,27.41l8.42,1.79v8.42h-47.11v-8.42Z"/>
        <path id="Path_131" data-name="Path 131" class="cls-3" d="M297.88,123.22c-6.43,7.15-15.65,11.14-25.27,10.93-20.24,0-35.65-15.94-35.65-45.15s19.17-46.94,39.41-46.94c8.29-.29,16.27,3.2,21.68,9.49V18.78l-12.54-1.79v-7.7l37.8-8.06,2.87,1.97-.72,25.08v93.16l8.78,1.61v8.42l-34.93,1.97-1.42-10.21ZM285.89,118.56c4.08.03,8.03-1.44,11.11-4.12v-53.39c-2.98-2.44-6.72-3.77-10.57-3.76-10.93,0-19.17,10.03-19.17,31.35,0,19.71,7.7,29.92,18.63,29.92"/>
        <path id="Path_132" data-name="Path 132" class="cls-3" d="M343.56,123.04l9.68-2.15c.18-8.6.18-19.53.18-27.05v-8.6c0-9.85-.18-15.41-.54-22.57l-10.93-1.61v-6.99l37.44-11.99,3.05,1.97-.54,25.98v23.82c0,7.52,0,18.63.18,27.41l8.96,1.79v8.42h-47.47v-8.42ZM351.8,15.19c0-8.42,6.81-14.33,15.23-14.33s15.05,5.91,15.05,14.33-6.63,14.15-15.05,14.15-15.23-5.91-15.23-14.15"/>
        <path id="Path_133" data-name="Path 133" class="cls-3" d="M422.91,97.78c-1.63,1.96-2.52,4.43-2.51,6.98,0,5.38,3.23,7.88,10.93,7.88h20.42c27.23,0,36.72,10.57,36.72,25.26,0,17.74-20.6,34.22-56.79,34.22-25.62,0-34.21-10.03-34.21-19.71,0-8.42,5.73-15.22,17.55-19.17-8.42-3.05-12.9-8.6-12.9-16.48s4.66-14.87,13.97-21.5c-9.26-4.44-15.01-13.93-14.68-24.19,0-16.66,11.99-29.02,37.44-29.02,13.25,0,22.57,3.22,28.66,8.6l5.38,6.63c2.34,4.21,3.51,8.98,3.4,13.79,0,16.13-12,28.67-37.44,28.67-5.38.06-10.74-.6-15.94-1.97M437.97,161.54c19.71,0,27.95-5.55,27.95-13.79,0-6.98-4.12-11.82-14.51-11.82h-17.37c-4.13.08-8.26-.16-12.36-.72-3.38,2.9-5.23,7.2-5.02,11.65,0,9.14,5.73,14.68,21.32,14.68M451.24,70.71c0-12.9-4.12-20.6-12.18-20.6s-12.18,7.88-12.18,20.78,3.76,20.96,12,20.96,12.36-8.06,12.36-21.14"/>
        <path id="Path_134" data-name="Path 134" class="cls-3" d="M489.33,87.93c0-27.59,19.88-45.86,45.32-45.86s45.68,17.73,45.68,45.86-17.92,46.22-45.68,46.22-45.32-18.82-45.32-46.22M549.88,88.29c0-25.43-5.02-36.73-15.23-36.73s-15.05,11.29-15.05,36.73,5.02,36.54,15.05,36.54,15.23-11.1,15.23-36.54"/>
        <path id="Path_135" data-name="Path 135" class="cls-3" d="M489.62,42.99c-2.56,4.17-8.01,5.47-12.18,2.91-4.17-2.56-5.47-8.01-2.91-12.18,2.56-4.17,8.01-5.47,12.18-2.91,0,0,0,0,0,0,4.17,2.56,5.47,8.01,2.91,12.18,0,0,0,0,0,0"/>
        <path id="Path_136" data-name="Path 136" class="cls-3" d="M489.64,42.86s-5.42,10.75-16.61,9.53c-.27-.04-.46-.28-.43-.55.02-.18.15-.34.32-.4,2.92-.94,7.51-3.7,8.25-11.72l8.46,3.15Z"/>
      </g>
    </g>
  </g>
  <g>
    <path id="Union_3" data-name="Union 3" class="cls-1" d="M30.75,54.49c-.34.16-.75.02-.91-.32-.11-.23-.08-.5.07-.71,2.34-2.85,3.57-6.43,3.49-10.11-.79.18-1.6.28-2.42.3-6.75.17-12.37-5.16-12.54-11.91,0,0,0,0,0,0-.16-6.75,5.17-12.36,11.93-12.54,6.66-.17,12.23,5.03,12.53,11.68.63,5.56.55,15.58-9.49,22.1-.85.55-1.74,1.06-2.65,1.52Z"/>
    <path id="Union_3-2" data-name="Union 3" class="cls-1" d="M33.55,92.44c10.04,6.52,10.12,16.54,9.49,22.1-.3,6.66-5.87,11.85-12.53,11.68-6.75-.18-12.09-5.79-11.93-12.54,0,0,0,0,0,0,.17-6.75,5.79-12.09,12.54-11.91.81.02,1.62.12,2.42.3.09-3.68-1.15-7.27-3.49-10.11-.15-.2-.18-.48-.07-.71.16-.34.57-.49.91-.32.91.46,1.79.96,2.65,1.52Z"/>
    <path id="Union_3-3" data-name="Union 3" class="cls-1" d="M35.94,83.43c.24.29.21.72-.08.96-.2.16-.47.21-.7.11-3.34-1.54-7.13-1.84-10.67-.83.37.72.68,1.48.9,2.27,1.87,6.49-1.88,13.27-8.38,15.14,0,0,0,0,0,0-6.5,1.86-13.27-1.9-15.14-8.39-1.84-6.4,1.79-13.1,8.16-15.06,5.22-2.01,14.94-4.45,23.78,3.63.75.69,1.46,1.42,2.14,2.18Z"/>
    <path id="Union_3-4" data-name="Union 3" class="cls-1" d="M34.02,63.59c-8.51,8.42-18.32,6.35-23.62,4.56C3.97,66.44.08,59.89,1.66,53.42c1.61-6.56,8.23-10.58,14.8-8.98,0,0,0,0,0,0,6.56,1.61,10.57,8.24,8.96,14.8-.19.79-.46,1.56-.81,2.3,3.58.87,7.35.43,10.62-1.25.23-.11.5-.08.71.08.3.23.35.66.12.96-.64.79-1.33,1.55-2.05,2.26Z"/>
  </g>
</svg>