<?xml version="1.0" encoding="UTF-8"?>
<svg id="Layer_1" data-name="Layer 1" xmlns="http://www.w3.org/2000/svg" xmlns:xlink="http://www.w3.org/1999/xlink" viewBox="0 0 35 35">
  <defs>
    <style>
      .cls-1 {
        clip-path: url(#clippath);
      }

      .cls-2 {
        fill: none;
      }

      .cls-2, .cls-3 {
        stroke-width: 0px;
      }

      .cls-3 {
        fill: #fff;
      }
    </style>
    <clipPath id="clippath">
      <rect class="cls-2" x="6.46" y="2.76" width="22.39" height="30"/>
    </clipPath>
  </defs>
  <g class="cls-1">
    <g id="Group_13" data-name="Group 13">
      <path id="Path_18" data-name="Path 18" class="cls-3" d="M17.66,2.76c6.23.02,11.26,5.09,11.24,11.32,0,1.1-.17,2.19-.49,3.25-1.34,4.93-4.23,8.99-7.42,12.86-2.84,3.44-3.84,3.43-6.7-.02-3.02-3.64-5.73-7.49-7.18-12.06-2.2-6.94,1.4-13.52,8.2-15.05.77-.17,1.57-.2,2.35-.3M17.7,4.49c-5.23-.09-9.54,4.08-9.63,9.31-.01.73.06,1.46.22,2.17,1,4.86,3.8,8.77,6.81,12.53,2.7,3.38,2.42,3.21,5.02.03,2.84-3.48,5.41-7.15,6.6-11.57,1.75-6.47-2.59-12.43-9.03-12.47"/>
      <path id="Path_19" data-name="Path 19" class="cls-2" d="M17.7,4.49c6.44.04,10.77,6,9.03,12.47-1.19,4.42-3.76,8.09-6.6,11.57-2.6,3.18-2.32,3.35-5.02-.03-3.01-3.76-5.81-7.67-6.81-12.53-1.11-5.11,2.13-10.16,7.24-11.27.71-.16,1.45-.23,2.18-.22M11.45,13.96c0,3.42,2.78,6.19,6.2,6.18s6.19-2.78,6.18-6.2c0-3.39-2.74-6.15-6.13-6.18-3.44-.02-6.23,2.76-6.25,6.19,0,0,0,0,0,0"/>
      <path id="Path_20" data-name="Path 20" class="cls-3" d="M11.45,13.96c.03-3.42,2.83-6.16,6.25-6.13,3.42.03,6.16,2.83,6.13,6.25-.03,3.39-2.79,6.12-6.18,6.13-3.42,0-6.2-2.78-6.2-6.2,0-.02,0-.04,0-.06M22.15,13.95c-.02-2.49-2.05-4.5-4.54-4.48s-4.5,2.05-4.48,4.54c-.03,2.49,1.96,4.54,4.45,4.57,2.49.03,4.54-1.96,4.57-4.45,0-.06,0-.12,0-.18"/>
      <path id="Path_21" data-name="Path 21" class="cls-2" d="M22.15,13.96c0,2.49-2.01,4.51-4.5,4.52-2.49,0-4.51-2.01-4.52-4.5,0-2.48,2-4.5,4.48-4.52,2.5-.01,4.53,2,4.54,4.5h0"/>
    </g>
  </g>
</svg>