<?xml version="1.0" encoding="UTF-8"?>
<svg id="Layer_1" data-name="Layer 1" xmlns="http://www.w3.org/2000/svg" xmlns:xlink="http://www.w3.org/1999/xlink" viewBox="0 0 35 35">
  <defs>
    <style>
      .cls-1 {
        clip-path: url(#clippath);
      }

      .cls-2 {
        fill: none;
      }

      .cls-2, .cls-3 {
        stroke-width: 0px;
      }

      .cls-3 {
        fill: #fff;
      }
    </style>
    <clipPath id="clippath">
      <rect class="cls-2" x="2.2" y="2.19" width="30" height="30"/>
    </clipPath>
  </defs>
  <g class="cls-1">
    <g id="Group_21" data-name="Group 21">
      <path id="Path_34" data-name="Path 34" class="cls-3" d="M21.13,22.53c-4.96,4.08-12.29,3.36-16.37-1.6-.08-.1-.17-.21-.25-.31C.7,15.54,1.72,8.33,6.8,4.52c5.08-3.82,12.29-2.8,16.1,2.28,3.21,4.27,3.06,10.18-.36,14.28.17.18.34.38.53.57,2.81,2.81,5.62,5.62,8.43,8.43.17.15.32.31.47.49.34.38.31.95-.07,1.29-.33.39-.91.45-1.31.12-.01-.01-.03-.02-.04-.04-.19-.16-.37-.33-.54-.52l-8.88-8.89M4.21,13.61c-.05,5.24,4.16,9.53,9.4,9.58,5.24.05,9.53-4.16,9.58-9.4.05-5.24-4.16-9.53-9.4-9.58,0,0,0,0-.01,0-5.23-.03-9.51,4.17-9.57,9.4"/>
      <path id="Path_35" data-name="Path 35" class="cls-2" d="M4.21,13.61c.05-5.24,4.33-9.45,9.58-9.41,5.24.05,9.45,4.33,9.41,9.58-.05,5.24-4.33,9.45-9.58,9.41-.03,0-.05,0-.08,0-5.21-.09-9.37-4.36-9.33-9.58"/>
    </g>
  </g>
</svg>