<?xml version="1.0" encoding="UTF-8"?>
<svg id="Layer_1" data-name="Layer 1" xmlns="http://www.w3.org/2000/svg" xmlns:xlink="http://www.w3.org/1999/xlink" viewBox="0 0 35 35">
  <defs>
    <style>
      .cls-1 {
        clip-path: url(#clippath);
      }

      .cls-2 {
        fill: none;
      }

      .cls-2, .cls-3 {
        stroke-width: 0px;
      }

      .cls-3 {
        fill: #fff;
      }
    </style>
    <clipPath id="clippath">
      <rect class="cls-2" x="5.6" y="1.41" width="23.19" height="30"/>
    </clipPath>
  </defs>
  <g id="Group_101" data-name="Group 101">
    <g id="Group_77" data-name="Group 77">
      <g class="cls-1">
        <g id="Group_17" data-name="Group 17">
          <path id="Path_27" data-name="Path 27" class="cls-3" d="M11.26,9.19c0-1.03-.06-1.97.01-2.89.33-2.7,2.57-4.76,5.29-4.87,3.1-.22,5.79,1.43,6.42,4.05.15.95.2,1.91.17,2.86.01.26,0,.52,0,.85h4.48c.93,0,1.15.2,1.15,1.02,0,5.68.02,11.37,0,17.06,0,2.34-2,4.11-4.66,4.12-4.63.02-9.26.02-13.89,0-2.61-.01-4.61-1.78-4.62-4.08-.03-5.7-.01-11.42,0-17.13,0-.81.22-.99,1.18-.99h4.47M12.79,10.59c0,1.16-.01,2.28,0,3.4,0,.49-.15.91-.76.92s-.8-.4-.8-.89c0-.43,0-.86,0-1.3v-2.14h-4.05v16.35c0,2.19,1.37,3.25,4.03,3.1,3.94-.28,7.89-.28,11.83-.01,2.69.21,4.14-.87,4.15-3.03,0-5.21,0-10.41,0-15.62,0-.25-.02-.51-.04-.76h-4.01v2.93c0,.24.08.53-.04.71-.04.06-.08.11-.13.16-.33.34-.87.35-1.21.02-.02-.02-.05-.05-.07-.07-.03-.05-.06-.1-.06-.16-.07-1.19-.03-2.38-.03-3.6h-8.82ZM12.9,9.14h8.7c0-.96.06-1.87-.01-2.78-.29-2.1-2.11-3.64-4.22-3.61-2.04-.19-3.92,1.13-4.44,3.11-.11,1.09-.12,2.18-.03,3.27"/>
          <path id="Path_28" data-name="Path 28" class="cls-2" d="M12.79,10.59h8.82c0,1.22-.04,2.41.03,3.6,0,.06.03.12.06.16.3.37.84.42,1.21.12.03-.02.05-.04.07-.07.05-.05.09-.1.13-.16.12-.18.04-.47.04-.71v-2.93h4.01c.01.25.04.51.04.76v15.62c0,2.16-1.45,3.24-4.15,3.03-3.94-.27-7.89-.27-11.83.01-2.66.16-4.03-.9-4.03-3.1,0-5.18,0-10.36,0-15.55v-.81h4.05v2.14c0,.43,0,.86,0,1.3,0,.49.18.9.8.89.63-.01.76-.43.76-.92-.02-1.12,0-2.24,0-3.4"/>
        </g>
      </g>
    </g>
  </g>
</svg>